<svg width="310" height="96" viewBox="0 0 310 96" fill="none" xmlns="http://www.w3.org/2000/svg">
<path d="M4.81269 28.2962L37.1721 42.4144L37.5768 66.5953L5.21744 52.4769L4.81269 28.2962Z" fill="#353D51"/>
<path d="M69.1873 28.2962L36.8279 42.4144L36.4232 66.5953L68.7826 52.4769L69.1873 28.2962Z" fill="#0F172B"/>
<path d="M4.91718 1.49936L34.7713 14.4994L34.7713 38.4995L4.91718 25.4994L4.91718 1.49936Z" fill="#CDCDCD"/>
<path d="M69.0872 57.2962L39.2331 70.2962L39.2331 94.2964L69.0872 81.2962L69.0872 57.2962Z" fill="#CDCDCD"/>
<path d="M90.441 48.9297C87.2115 48.9297 84.4877 48.4241 82.2694 47.4128C80.0512 46.3689 78.3712 44.9662 77.2295 43.2047C76.0877 41.4106 75.5169 39.3554 75.5169 37.0393H83.297C83.297 37.9527 83.5416 38.8009 84.031 39.5838C84.5529 40.3667 85.3358 41.0028 86.3797 41.4921C87.4236 41.9488 88.7773 42.1771 90.441 42.1771C91.9416 42.1771 93.1975 41.9814 94.2087 41.59C95.22 41.1985 95.9866 40.6603 96.5085 39.9752C97.0304 39.2576 97.2914 38.442 97.2914 37.5287C97.2914 36.3869 96.8021 35.4898 95.8235 34.8374C94.8448 34.1524 93.2627 33.712 91.0771 33.5163L88.3859 33.2716C84.8302 32.978 81.9922 31.8689 79.8718 29.9443C77.7514 28.0196 76.6912 25.4752 76.6912 22.3109C76.6912 20.0275 77.2295 18.0539 78.306 16.3902C79.4151 14.7266 80.9483 13.4543 82.9055 12.5736C84.8628 11.6602 87.1789 11.2035 89.8538 11.2035C92.6592 11.2035 95.0569 11.6928 97.0468 12.6714C99.0693 13.6174 100.619 14.9712 101.695 16.7327C102.772 18.4617 103.31 20.5005 103.31 22.8492H95.4809C95.4809 21.9684 95.2689 21.1692 94.8448 20.4515C94.4208 19.7013 93.7846 19.0978 92.9365 18.6411C92.121 18.1844 91.0934 17.956 89.8538 17.956C88.6795 17.956 87.6845 18.1518 86.869 18.5432C86.0861 18.9347 85.4989 19.4729 85.1075 20.158C84.716 20.8104 84.5203 21.528 84.5203 22.3109C84.5203 23.3222 84.8791 24.203 85.5968 24.9532C86.3144 25.7035 87.4888 26.1439 89.1198 26.2744L91.86 26.5191C94.4697 26.7474 96.7695 27.3183 98.7594 28.2317C100.749 29.1124 102.299 30.3357 103.408 31.9015C104.55 33.4347 105.12 35.3104 105.12 37.5287C105.12 39.8121 104.517 41.8183 103.31 43.5472C102.136 45.2435 100.456 46.5647 98.27 47.5107C96.0844 48.4567 93.4748 48.9297 90.441 48.9297ZM110.747 48V12.28H118.772V48H110.747ZM126.896 48V12.28H137.955L146.126 32.3419H147.056L155.13 12.28H166.384V48H158.457V17.5157L159.582 17.6135L150.139 40.7581H142.505L133.013 17.6135L134.236 17.5157V48H126.896ZM181.44 37.7733V30.825H187.85C189.09 30.825 190.15 30.5804 191.031 30.0911C191.944 29.6017 192.646 28.9167 193.135 28.0359C193.624 27.1225 193.869 26.0787 193.869 24.9043C193.869 23.6647 193.624 22.6045 193.135 21.7238C192.646 20.8104 191.944 20.1253 191.031 19.6686C190.15 19.1793 189.09 18.9347 187.85 18.9347H181.44V11.9864H187.459C190.493 11.9864 193.086 12.492 195.239 13.5033C197.425 14.5145 199.088 15.9498 200.23 17.8092C201.404 19.6686 201.992 21.9032 201.992 24.5129V25.2958C201.992 27.8402 201.404 30.0584 200.23 31.9505C199.088 33.8099 197.425 35.2452 195.239 36.2564C193.086 37.2677 190.493 37.7733 187.459 37.7733H181.44ZM174.394 48V11.9864H182.419V48H174.394ZM207.031 48V12.28H214.86V48H207.031ZM213.881 48V41.3453H229.491V48H213.881ZM213.881 33.1737V26.5191H228.365V33.1737H213.881ZM213.881 18.9347V12.28H229.148V18.9347H213.881ZM236.084 48V11.9864H244.109V48H236.084ZM257.761 48L247.289 32.6355H256.097L267.058 48H257.761ZM241.956 36.55V30.2379H250.764C251.938 30.2379 252.949 30.0095 253.797 29.5528C254.678 29.0635 255.347 28.3948 255.804 27.5466C256.293 26.6659 256.538 25.6546 256.538 24.5129C256.538 23.3711 256.293 22.3762 255.804 21.528C255.347 20.6473 254.678 19.9785 253.797 19.5218C252.949 19.0325 251.938 18.7879 250.764 18.7879H241.956V11.9864H250.128C253.096 11.9864 255.673 12.4431 257.859 13.3565C260.044 14.2372 261.724 15.5584 262.899 17.3199C264.073 19.0815 264.66 21.2997 264.66 23.9746V24.7575C264.66 27.3998 264.057 29.6017 262.85 31.3633C261.675 33.0922 259.995 34.397 257.81 35.2778C255.657 36.1259 253.096 36.55 250.128 36.55H241.956ZM286.466 48.9297C283.106 48.9297 280.251 48.3099 277.903 47.0703C275.587 45.7981 273.825 44.0039 272.618 41.6878C271.411 39.3717 270.808 36.6316 270.808 33.4673V12.28H278.832V33.7609C278.832 35.3267 279.126 36.6968 279.713 37.8712C280.333 39.0129 281.197 39.8937 282.306 40.5135C283.448 41.1333 284.835 41.4432 286.466 41.4432C288.129 41.4432 289.516 41.1333 290.625 40.5135C291.767 39.8937 292.631 39.0129 293.218 37.8712C293.805 36.7294 294.099 35.3594 294.099 33.7609V12.28H302.124V33.4673C302.124 36.6316 301.52 39.3717 300.313 41.6878C299.106 44.0039 297.345 45.7981 295.029 47.0703C292.713 48.3099 289.858 48.9297 286.466 48.9297Z" fill="#0F172B"/>
<path d="M77.1855 86.4082V60.1023H86.074C88.1377 60.1023 89.8246 60.4748 91.1348 61.2198C92.4535 61.9562 93.4297 62.9538 94.0634 64.2126C94.6971 65.4714 95.0139 66.8757 95.0139 68.4257C95.0139 69.9756 94.6971 71.3842 94.0634 72.6516C93.4383 73.9189 92.4706 74.9293 91.1605 75.6829C89.8503 76.4279 88.172 76.8004 86.1254 76.8004H79.7544V73.9746H86.0226C87.4355 73.9746 88.5701 73.7305 89.4265 73.2424C90.2828 72.7543 90.9036 72.095 91.2889 71.2643C91.6828 70.4251 91.8798 69.4789 91.8798 68.4257C91.8798 67.3724 91.6828 66.4305 91.2889 65.5998C90.9036 64.7692 90.2785 64.1184 89.4136 63.6474C88.5487 63.1679 87.4013 62.9281 85.9712 62.9281H80.371V86.4082H77.1855ZM101.954 86.4082V60.1023H110.842C112.898 60.1023 114.584 60.4534 115.903 61.1556C117.222 61.8492 118.198 62.804 118.832 64.0199C119.465 65.2359 119.782 66.6188 119.782 68.1688C119.782 69.7187 119.465 71.0931 118.832 72.2919C118.198 73.4907 117.226 74.4327 115.916 75.1177C114.606 75.7942 112.932 76.1325 110.894 76.1325H103.701V73.2553H110.791C112.195 73.2553 113.326 73.0497 114.182 72.6387C115.047 72.2277 115.672 71.6454 116.057 70.8918C116.451 70.1297 116.648 69.222 116.648 68.1688C116.648 67.1155 116.451 66.195 116.057 65.4072C115.663 64.6194 115.034 64.0114 114.169 63.5832C113.304 63.1465 112.161 62.9281 110.74 62.9281H105.139V86.4082H101.954ZM114.336 74.5911L120.81 86.4082H117.111L110.74 74.5911H114.336ZM149.094 73.2553C149.094 76.0297 148.594 78.4274 147.592 80.4483C146.59 82.4692 145.215 84.0277 143.468 85.1237C141.722 86.2198 139.726 86.7679 137.483 86.7679C135.239 86.7679 133.244 86.2198 131.497 85.1237C129.75 84.0277 128.376 82.4692 127.374 80.4483C126.372 78.4274 125.871 76.0297 125.871 73.2553C125.871 70.4808 126.372 68.0831 127.374 66.0622C128.376 64.0413 129.75 62.4829 131.497 61.3868C133.244 60.2907 135.239 59.7427 137.483 59.7427C139.726 59.7427 141.722 60.2907 143.468 61.3868C145.215 62.4829 146.59 64.0413 147.592 66.0622C148.594 68.0831 149.094 70.4808 149.094 73.2553ZM146.012 73.2553C146.012 70.9775 145.631 69.055 144.869 67.488C144.115 65.9209 143.092 64.735 141.799 63.93C140.514 63.1251 139.076 62.7226 137.483 62.7226C135.89 62.7226 134.447 63.1251 133.154 63.93C131.87 64.735 130.846 65.9209 130.084 67.488C129.331 69.055 128.954 70.9775 128.954 73.2553C128.954 75.533 129.331 77.4555 130.084 79.0225C130.846 80.5896 131.87 81.7756 133.154 82.5805C134.447 83.3854 135.89 83.7879 137.483 83.7879C139.076 83.7879 140.514 83.3854 141.799 82.5805C143.092 81.7756 144.115 80.5896 144.869 79.0225C145.631 77.4555 146.012 75.533 146.012 73.2553ZM156.259 86.4082V60.1023H165.148C167.211 60.1023 168.898 60.4748 170.209 61.2198C171.527 61.9562 172.503 62.9538 173.137 64.2126C173.771 65.4714 174.088 66.8757 174.088 68.4257C174.088 69.9756 173.771 71.3842 173.137 72.6516C172.512 73.9189 171.544 74.9293 170.234 75.6829C168.924 76.4279 167.246 76.8004 165.199 76.8004H158.828V73.9746H165.096C166.509 73.9746 167.644 73.7305 168.5 73.2424C169.357 72.7543 169.977 72.095 170.363 71.2643C170.757 70.4251 170.954 69.4789 170.954 68.4257C170.954 67.3724 170.757 66.4305 170.363 65.5998C169.977 64.7692 169.352 64.1184 168.487 63.6474C167.622 63.1679 166.475 62.9281 165.045 62.9281H159.445V86.4082H156.259ZM181.028 86.4082V60.1023H196.904V62.9281H184.213V71.8167H196.082V74.6425H184.213V83.5824H197.109V86.4082H181.028ZM204.454 86.4082V60.1023H213.342C215.397 60.1023 217.084 60.4534 218.403 61.1556C219.722 61.8492 220.698 62.804 221.332 64.0199C221.965 65.2359 222.282 66.6188 222.282 68.1688C222.282 69.7187 221.965 71.0931 221.332 72.2919C220.698 73.4907 219.726 74.4327 218.416 75.1177C217.106 75.7942 215.432 76.1325 213.394 76.1325H206.201V73.2553H213.291C214.695 73.2553 215.826 73.0497 216.682 72.6387C217.547 72.2277 218.172 71.6454 218.557 70.8918C218.951 70.1297 219.148 69.222 219.148 68.1688C219.148 67.1155 218.951 66.195 218.557 65.4072C218.163 64.6194 217.534 64.0114 216.669 63.5832C215.804 63.1465 214.661 62.9281 213.239 62.9281H207.639V86.4082H204.454ZM216.836 74.5911L223.31 86.4082H219.61L213.239 74.5911H216.836ZM227.96 62.9281V60.1023H247.69V62.9281H239.418V86.4082H236.232V62.9281H227.96ZM257.6 60.1023V86.4082H254.414V60.1023H257.6ZM265.795 86.4082V60.1023H281.671V62.9281H268.981V71.8167H280.849V74.6425H268.981V83.5824H281.877V86.4082H265.795ZM303.608 66.6788C303.453 65.3772 302.828 64.3667 301.732 63.6474C300.636 62.9281 299.292 62.5685 297.699 62.5685C296.534 62.5685 295.515 62.7569 294.642 63.1337C293.777 63.5104 293.101 64.0285 292.613 64.6879C292.133 65.3472 291.893 66.0965 291.893 66.9357C291.893 67.6378 292.06 68.2416 292.394 68.7468C292.737 69.2434 293.173 69.6587 293.704 69.9927C294.235 70.3181 294.792 70.5878 295.374 70.8019C295.956 71.0074 296.492 71.1744 296.98 71.3029L299.651 72.0222C300.336 72.202 301.099 72.4503 301.938 72.7672C302.785 73.084 303.595 73.5164 304.365 74.0645C305.145 74.6039 305.787 75.2976 306.292 76.1453C306.797 76.9931 307.05 78.0335 307.05 79.2666C307.05 80.688 306.677 81.9725 305.932 83.12C305.196 84.2674 304.117 85.1794 302.696 85.8559C301.283 86.5324 299.566 86.8706 297.545 86.8706C295.661 86.8706 294.03 86.5666 292.651 85.9586C291.281 85.3507 290.202 84.5029 289.414 83.4154C288.635 82.3279 288.194 81.0648 288.091 79.6262H291.379C291.465 80.6195 291.799 81.4416 292.381 82.0924C292.972 82.7346 293.717 83.2142 294.616 83.531C295.524 83.8393 296.5 83.9934 297.545 83.9934C298.761 83.9934 299.853 83.7965 300.82 83.4025C301.788 83.0001 302.554 82.4435 303.119 81.7327C303.685 81.0134 303.967 80.1743 303.967 79.2152C303.967 78.3417 303.723 77.631 303.235 77.083C302.747 76.5349 302.105 76.0896 301.308 75.7471C300.512 75.4046 299.651 75.1049 298.727 74.848L295.49 73.9232C293.435 73.3323 291.808 72.4889 290.609 71.3928C289.41 70.2967 288.81 68.8624 288.81 67.0898C288.81 65.617 289.209 64.3325 290.005 63.2364C290.81 62.1318 291.889 61.2755 293.242 60.6675C294.603 60.0509 296.123 59.7427 297.802 59.7427C299.497 59.7427 301.004 60.0466 302.323 60.6546C303.642 61.254 304.687 62.0761 305.457 63.1208C306.236 64.1655 306.647 65.3515 306.69 66.6788H303.608Z" fill="#CDCDCD"/>
</svg>
